{"title":"Zootropolis (2016) multi audio &amp; sub.","uid":15606973,"size":16169609134,"categoryP":"video","categoryS":"hd___movies","magnet":"?xt=urn:btih:eaff1b16c978e14b99a25522aba1ff80ad0aa0cc&amp;dn=Zootropolis+%282016%29+multi+audio+%26amp%3B+sub.&amp;tr=udp%3A%2F%2Ftracker.leechers-paradise.org%3A6969&amp;tr=udp%3A%2F%2Fzer0day.ch%3A1337&amp;tr=udp%3A%2F%2Fopen.demonii.com%3A1337&amp;tr=udp%3A%2F%2Ftracker.coppersurfer.tk%3A6969&amp;tr=udp%3A%2F%2Fexodus.desync.com%3A6969","seeders":7,"leechers":3,"uploader":"immri","files":1,"time":1471735795,"description":"General \r\nUnique ID : 68658334490108864814205155422832033515 (0x33A71D3E596EEAF6B9FCD73A3D9DFEEB) \r\nComplete name : C:UsersööDesktopUus kaust (2) - Title 1.mkv \r\nFormat : Matroska \r\nFormat version : Version 2 \r\nFile size : 15.1 GiB \r\nDuration : 1h 44mn \r\nOverall bit rate : 20.7 Mbps \r\nEncoded date : UTC  \r\nWriting application : HandBrake 0.10.2 2015060900 \r\nWriting library : Lavf55.12.0 / Lavf55.12.0 \r\n\r\nVideo \r\nID : 1 \r\nFormat : AVC \r\nFormat/Info : Advanced Video Codec \r\nFormat profile : High 4:4:4    \r\nFormat settings, CABAC : Yes \r\nFormat settings, ReFrames : 1 frame \r\nFormat settings, GOP : M=1, N=12 \r\nCodec ID : V_MPEG4/ISO/AVC \r\nDuration : 1h 44mn \r\nBit rate : 18.8 Mbps \r\nWidth : 720 pixels \r\nHeight : 428 pixels \r\nDisplay aspect ratio : 2.40:1 \r\nFrame rate mode : Constant \r\nFrame rate : 25.000 fps \r\nColor space : YUV \r\nChroma subsampling : 4:2:0 \r\nBit depth : 8 bits \r\nScan type : Progressive \r\nBits/(Pixel*Frame) : 2.436 \r\nStream size : 13.6 GiB (91%) \r\nWriting library : x264 core 142 r2479 dd79a61 \r\nEncoding settings : cabac=1 / ref=1 / deblock=1:0:0 / analyse=0x1:0x111 / me=hex / subme=2 / psy=0 / mixed_ref=0 / me_range=16 / chroma_me=1 / trellis=0 / 8x8dct=1 / cqm=0 / deadzone=21,11 / fast_pskip=0 / chroma_qp_offset=0 / threads=3 / lookahead_threads=1 / sliced_threads=0 / nr=0 / decimate=1 / interlaced=0 / bluray_compat=0 / constrained_intra=0 / bframes=0 / weightp=1 / keyint=250 / keyint_min=25 / scenecut=40 / intra_refresh=0 / rc=cqp / mbtree=0 / qp=0 \r\nDefault : Yes \r\nForced : No \r\nColor range : Limited \r\nColor primaries : BT.601 PAL \r\nTransfer characteristics : BT.709 \r\nMatrix coefficients : BT.601 \r\n\r\nAudio #1 \r\nID : 2 \r\nFormat : AC-3 \r\nFormat/Info : Audio Coding 3 \r\nMode extension : CM (complete main) \r\nFormat settings, Endianness : Big \r\nCodec ID : A_AC3 \r\nDuration : 1h 44mn \r\nBit rate mode : Constant \r\nBit rate : 384 Kbps \r\nChannel(s) : 6 channels \r\nChannel positions : Front: L C R, Side: L R, LFE \r\nSampling rate : 48.0 KHz \r\nFrame rate : 31.250 fps (1536 spf) \r\nCompression mode : Lossy \r\nStream size : 286 MiB (2%) \r\nTitle : Surround \r\nLanguage : Estonian \r\nDefault : Yes \r\nForced : No \r\n\r\nAudio #2 \r\nID : 3 \r\nFormat : AC-3 \r\nFormat/Info : Audio Coding 3 \r\nMode extension : CM (complete main) \r\nFormat settings, Endianness : Big \r\nCodec ID : A_AC3 \r\nDuration : 1h 44mn \r\nBit rate mode : Constant \r\nBit rate : 384 Kbps \r\nChannel(s) : 6 channels \r\nChannel positions : Front: L C R, Side: L R, LFE \r\nSampling rate : 48.0 KHz \r\nFrame rate : 31.250 fps (1536 spf) \r\nCompression mode : Lossy \r\nStream size : 286 MiB (2%) \r\nTitle : Surround \r\nLanguage : English \r\nDefault : No \r\nForced : No \r\n\r\nAudio #3 \r\nID : 4 \r\nFormat : AC-3 \r\nFormat/Info : Audio Coding 3 \r\nMode extension : CM (complete main) \r\nFormat settings, Endianness : Big \r\nCodec ID : A_AC3 \r\nDuration : 1h 44mn \r\nBit rate mode : Constant \r\nBit rate : 384 Kbps \r\nChannel(s) : 6 channels \r\nChannel positions : Front: L C R, Side: L R, LFE \r\nSampling rate : 48.0 KHz \r\nFrame rate : 31.250 fps (1536 spf) \r\nCompression mode : Lossy \r\nStream size : 286 MiB (2%) \r\nTitle : Surround \r\nLanguage : Danish \r\nDefault : No \r\nForced : No \r\n\r\nAudio #4 \r\nID : 5 \r\nFormat : AC-3 \r\nFormat/Info : Audio Coding 3 \r\nMode extension : CM (complete main) \r\nFormat settings, Endianness : Big \r\nCodec ID : A_AC3 \r\nDuration : 1h 44mn \r\nBit rate mode : Constant \r\nBit rate : 384 Kbps \r\nChannel(s) : 6 channels \r\nChannel positions : Front: L C R, Side: L R, LFE \r\nSampling rate : 48.0 KHz \r\nFrame rate : 31.250 fps (1536 spf) \r\nCompression mode : Lossy \r\nStream size : 286 MiB (2%) \r\nTitle : Surround \r\nLanguage : Norwegian \r\nDefault : No \r\nForced : No \r\n\r\nText #1 \r\nID : 6 \r\nFormat : VobSub \r\nCodec ID : S_VOBSUB \r\nCodec ID/Info : Picture based subtitle format used on DVDs \r\nLanguage : English \r\nDefault : No \r\nForced : No \r\n\r\nText #2 \r\nID : 7 \r\nFormat : VobSub \r\nCodec ID : S_VOBSUB \r\nCodec ID/Info : Picture based subtitle format used on DVDs \r\nLanguage : Danish \r\nDefault : No \r\nForced : No \r\n\r\nText #3 \r\nID : 8 \r\nFormat : VobSub \r\nCodec ID : S_VOBSUB \r\nCodec ID/Info : Picture based subtitle format used on DVDs \r\nLanguage : Norwegian \r\nDefault : No \r\nForced : No \r\n\r\nText #4 \r\nID : 9 \r\nFormat : VobSub \r\nCodec ID : S_VOBSUB \r\nCodec ID/Info : Picture based subtitle format used on DVDs \r\nLanguage : Estonian \r\nDefault : No \r\nForced : No","torrent":{"xt":"urn:btih:eaff1b16c978e14b99a25522aba1ff80ad0aa0cc","amp;dn":"Zootropolis+%282016%29+multi+audio+%26amp%3B+sub.","amp;tr":["udp%3A%2F%2Ftracker.leechers-paradise.org%3A6969","udp%3A%2F%2Fzer0day.ch%3A1337","udp%3A%2F%2Fopen.demonii.com%3A1337","udp%3A%2F%2Ftracker.coppersurfer.tk%3A6969","udp%3A%2F%2Fexodus.desync.com%3A6969"],"infoHash":"eaff1b16c978e14b99a25522aba1ff80ad0aa0cc","infoHashBuffer":{"type":"Buffer","data":[234,255,27,22,201,120,225,75,153,162,85,34,171,161,255,128,173,10,160,204]},"announce":[],"urlList":[]}}